<svg id="svg" version="1.1" width="400" height="400" xmlns="http://www.w3.org/2000/svg" xmlns:xlink="http://www.w3.org/1999/xlink" style="display: block;"><g id="svgg"><path id="path0" d="M258.600 67.857 C 232.935 70.508,209.117 85.023,191.728 108.612 C 185.260 117.385,172.437 143.818,169.417 154.600 C 169.047 155.920,167.413 161.050,165.785 166.000 C 164.157 170.950,162.282 176.822,161.617 179.048 C 158.962 187.943,154.183 190.880,151.062 185.536 C 149.646 183.111,145.498 172.143,143.608 165.827 C 142.739 162.920,141.325 158.575,140.467 156.171 C 139.609 153.767,138.410 150.090,137.802 148.000 C 137.195 145.910,135.800 141.950,134.703 139.200 C 133.605 136.450,131.756 131.410,130.592 128.000 C 123.652 107.654,122.189 104.168,117.998 97.997 C 111.165 87.935,97.432 82.820,86.800 86.376 C 74.888 90.362,67.938 98.989,61.969 117.200 C 59.095 125.967,55.241 136.971,53.212 142.200 C 52.358 144.400,51.000 148.432,50.193 151.159 C 49.387 153.887,47.947 158.117,46.994 160.559 C 46.041 163.002,44.612 167.250,43.820 170.000 C 36.766 194.477,31.419 195.230,24.592 172.709 C 22.371 165.382,18.547 153.945,15.596 145.800 C 14.321 142.280,12.717 137.449,12.031 135.065 C 11.345 132.681,10.142 129.081,9.356 127.065 C 8.570 125.049,7.214 121.349,6.342 118.842 C 4.095 112.379,2.090 109.200,0.262 109.200 C 0.118 109.200,0.000 153.660,0.000 208.000 C 0.000 288.319,0.096 306.800,0.515 306.800 C 1.729 306.800,3.758 309.284,5.968 313.478 C 13.446 327.666,22.077 334.226,33.200 334.173 C 47.342 334.106,56.626 325.998,62.739 308.378 C 63.841 305.200,65.354 301.160,66.100 299.400 C 66.846 297.640,69.485 289.990,71.964 282.400 C 74.443 274.810,77.520 265.540,78.802 261.800 C 80.085 258.060,81.938 252.570,82.922 249.600 C 88.678 232.219,90.614 227.730,92.851 226.574 C 96.108 224.889,98.149 226.914,100.736 234.400 C 101.611 236.930,102.963 240.633,103.742 242.629 C 104.520 244.625,105.873 248.716,106.748 251.720 C 107.623 254.724,108.972 258.871,109.745 260.936 C 110.519 263.000,111.892 267.164,112.797 270.190 C 113.702 273.215,115.133 277.425,115.976 279.545 C 116.819 281.665,118.180 285.650,119.000 288.400 C 119.820 291.150,121.210 295.200,122.089 297.400 C 122.969 299.600,124.480 303.702,125.447 306.516 C 131.889 325.246,141.689 334.234,155.600 334.169 C 168.793 334.108,176.270 327.997,184.234 310.764 C 190.508 297.189,191.247 297.109,203.321 308.697 C 223.483 328.047,243.441 337.004,267.497 337.501 C 315.265 338.487,356.406 301.588,370.581 245.046 C 375.132 226.889,376.208 214.448,375.260 190.948 C 372.799 129.965,334.435 76.997,286.600 68.540 C 283.122 67.925,262.751 67.428,258.600 67.857 M274.080 132.848 C 288.794 135.961,302.876 154.712,308.139 178.200 C 310.858 190.329,310.986 191.384,310.979 201.600 C 310.973 212.100,310.793 213.528,307.765 227.153 C 301.732 254.299,285.630 272.363,268.226 271.511 C 254.524 270.841,242.580 258.655,233.550 236.136 C 229.498 226.030,227.016 201.680,228.793 189.468 C 231.297 172.253,235.283 161.037,243.102 149.200 C 250.745 137.630,263.889 130.692,274.080 132.848 " stroke="none" fill="#ffffff" fill-rule="evenodd"></path><path id="path1" d="M0.015 54.500 L 0.030 109.000 1.599 110.085 C 3.470 111.378,4.243 112.807,6.342 118.842 C 7.214 121.349,8.570 125.049,9.356 127.065 C 10.142 129.081,11.345 132.681,12.031 135.065 C 12.717 137.449,14.321 142.280,15.596 145.800 C 18.547 153.945,22.371 165.382,24.592 172.709 C 31.419 195.230,36.766 194.477,43.820 170.000 C 44.612 167.250,46.041 163.002,46.994 160.559 C 47.947 158.117,49.387 153.887,50.193 151.159 C 51.000 148.432,52.358 144.400,53.212 142.200 C 55.241 136.971,59.095 125.967,61.969 117.200 C 67.938 98.989,74.888 90.362,86.800 86.376 C 97.432 82.820,111.165 87.935,117.998 97.997 C 122.189 104.168,123.652 107.654,130.592 128.000 C 131.756 131.410,133.605 136.450,134.703 139.200 C 135.800 141.950,137.195 145.910,137.802 148.000 C 138.410 150.090,139.609 153.767,140.467 156.171 C 141.325 158.575,142.739 162.920,143.608 165.827 C 145.498 172.143,149.646 183.111,151.062 185.536 C 154.183 190.880,158.962 187.943,161.617 179.048 C 162.282 176.822,164.157 170.950,165.785 166.000 C 167.413 161.050,169.047 155.920,169.417 154.600 C 172.437 143.818,185.260 117.385,191.728 108.612 C 207.410 87.339,231.106 71.758,252.694 68.524 C 258.678 67.628,279.842 67.498,285.200 68.324 C 333.453 75.767,372.772 129.303,375.260 190.948 C 376.710 226.885,372.548 248.251,358.432 277.323 C 340.214 314.844,304.812 338.272,267.497 337.501 C 243.441 337.004,223.483 328.047,203.321 308.697 C 191.247 297.109,190.508 297.189,184.234 310.764 C 176.270 327.997,168.793 334.108,155.600 334.169 C 141.689 334.234,131.889 325.246,125.447 306.516 C 124.480 303.702,122.969 299.600,122.089 297.400 C 121.210 295.200,119.820 291.150,119.000 288.400 C 118.180 285.650,116.819 281.665,115.976 279.545 C 115.133 277.425,113.702 273.215,112.797 270.190 C 111.892 267.164,110.519 263.000,109.745 260.936 C 108.972 258.871,107.623 254.724,106.748 251.720 C 105.873 248.716,104.520 244.625,103.742 242.629 C 102.963 240.633,101.611 236.930,100.736 234.400 C 98.149 226.914,96.108 224.889,92.851 226.574 C 90.614 227.730,88.678 232.219,82.922 249.600 C 81.938 252.570,80.085 258.060,78.802 261.800 C 77.520 265.540,74.443 274.810,71.964 282.400 C 69.485 289.990,66.846 297.640,66.100 299.400 C 65.354 301.160,63.841 305.200,62.739 308.378 C 56.626 325.998,47.342 334.106,33.200 334.173 C 22.077 334.226,13.446 327.666,5.968 313.478 C 3.758 309.284,1.729 306.800,0.515 306.800 C 0.098 306.800,0.000 315.658,0.000 353.400 L 0.000 400.000 200.000 400.000 L 400.000 400.000 400.000 200.000 L 400.000 0.000 200.000 0.000 L 0.000 0.000 0.015 54.500 M264.552 133.191 C 246.260 137.987,233.320 158.352,228.793 189.468 C 227.016 201.680,229.498 226.030,233.550 236.136 C 242.580 258.655,254.524 270.841,268.226 271.511 C 285.630 272.363,301.732 254.299,307.765 227.153 C 310.793 213.528,310.973 212.100,310.979 201.600 C 310.986 191.384,310.858 190.329,308.139 178.200 C 301.499 148.569,282.141 128.579,264.552 133.191 " stroke="none" fill="#e20c1b" fill-rule="evenodd"></path></g></svg>